<?xml version="1.0" encoding="UTF-8"?>
<svg id="_圖層_1" data-name="圖層 1" xmlns="http://www.w3.org/2000/svg" xmlns:xlink="http://www.w3.org/1999/xlink" viewBox="0 0 1920 353.1">
  <defs>
    <style>
      .cls-1 {
        fill: #0031ff;
      }

      .cls-2 {
        fill: #0067ff;
      }

      .cls-3 {
        fill: #061033;
      }

      .cls-4 {
        fill: url(#_未命名漸層_9);
      }
    </style>
    <linearGradient id="_未命名漸層_9" data-name="未命名漸層 9" x1="371.42" y1="204.09" x2="0" y2="204.09" gradientUnits="userSpaceOnUse">
      <stop offset="0" stop-color="#8edff2"/>
      <stop offset="1" stop-color="#00a0ff"/>
    </linearGradient>
  </defs>
  <g>
    <path class="cls-3" d="M447.24,297.86h45.43c2.8,13.12,12.58,20.02,27.73,20.02s22.6-5.98,22.6-14.73c0-5.98-3.73-9.9-13.05-11.74l-36.11-6.9c-26.56-5.06-43.57-17.95-43.57-46.95s27.26-52.02,67.1-52.02,63.6,18.87,66.4,52.02h-45.2c-1.86-9.21-8.62-16.8-22.13-16.8-10.95,0-20.5,3.45-20.5,12.66,0,5.75,3.26,8.52,10.72,9.9l39.84,7.13c27.49,4.83,42.17,19.34,42.17,45.57,0,33.84-28.89,57.08-69.43,57.08s-68.5-21.41-71.99-55.24Z"/>
    <path class="cls-3" d="M632.47,188.76h84.81c41,0,65,22.33,65,54.09s-25.63,54.32-65,54.32h-37.51v52.71h-47.3V188.76Zm82.48,70.43c12.58,0,20.27-6.21,20.27-16.57,0-9.44-6.99-15.88-20.27-15.88h-35.18v32.45h35.18Z"/>
    <path class="cls-3" d="M822.6,188.76h128.84v39.13h-81.55v20.72h78.28v39.13h-78.28v23.02h83.41v39.13h-130.7V188.76Z"/>
    <path class="cls-3" d="M994.08,269.32c0-46.26,31.22-83.78,82.71-83.78,47.53,0,75.25,29,80.38,64.91h-47.53c-4.19-11.74-12.81-24.4-32.15-24.4-22.37,0-36.11,18.64-36.11,43.27s13.75,43.27,36.11,43.27c19.34,0,27.96-12.66,32.15-24.4h47.53c-5.13,35.91-32.85,64.91-80.38,64.91-51.49,0-82.71-37.52-82.71-83.78Z"/>
    <path class="cls-3" d="M1201.44,282.9v-94.14h47.3v93.91c0,19.1,8.39,29.92,26.09,29.92s26.09-10.82,26.09-29.92v-93.91h47.29v94.14c0,43.27-27.73,70.2-73.39,70.2s-73.39-26.93-73.39-70.2Z"/>
    <path class="cls-3" d="M1396.7,188.76h47.3v120.61h75.95v40.51h-123.25V188.76Z"/>
    <path class="cls-3" d="M1614.55,188.76h53.59l60.11,161.12h-49.16l-8.62-27.16h-58.25l-8.62,27.16h-49.16l60.11-161.12Zm43.57,94.6l-16.78-52.71-16.78,52.71h33.55Z"/>
    <path class="cls-3" d="M1766.23,188.76h88.77c41.01,0,65,22.1,65,53.63,0,23.94-13.98,41.89-37.28,49.72l28.89,57.77h-54.29l-25.16-53.63h-18.64v53.63h-47.3V188.76Zm86.44,69.51c12.58,0,20.27-5.98,20.27-16.11,0-9.21-6.99-15.42-20.27-15.42h-39.14v31.53h39.14Z"/>
  </g>
  <polygon class="cls-4" points="371.42 352.83 73.96 352.83 0 55.36 297.46 55.36 371.42 352.83"/>
  <polygon class="cls-2" points="222.29 352.83 74.37 352.83 37.6 204.91 185.51 204.91 222.29 352.83"/>
  <polygon class="cls-1" points="409.63 185.64 223.99 185.64 177.84 0 363.48 0 409.63 185.64"/>
</svg>